<?xml version="1.0" standalone="no"?>
<!DOCTYPE svg PUBLIC "-//W3C//DTD SVG 20010904//EN"
 "http://www.w3.org/TR/2001/REC-SVG-20010904/DTD/svg10.dtd">
<svg version="1.0" xmlns="http://www.w3.org/2000/svg"
 width="300.000000pt" height="289.000000pt" viewBox="0 0 300.000000 289.000000"
 preserveAspectRatio="xMidYMid meet">
<metadata>
Created by potrace 1.10, written by Peter Selinger 2001-2011
</metadata>
<g transform="translate(0.000000,289.000000) scale(0.100000,-0.100000)"
fill="#e73845" stroke="none">
<path d="M1340 2879 c-134 -17 -270 -78 -382 -172 l-62 -51 -136 -1 c-142 -2
-184 -11 -290 -65 -107 -54 -209 -159 -267 -273 -29 -59 -63 -185 -63 -238 0
-21 -5 -41 -10 -44 -6 -4 -26 -38 -46 -77 -106 -210 -103 -457 8 -671 50 -96
178 -231 271 -286 59 -34 158 -74 213 -84 l30 -6 41 135 40 134 -27 38 c-15
20 -36 60 -48 87 -16 37 -26 49 -39 47 -102 -20 -165 -6 -222 50 -44 43 -51
65 -51 152 0 88 19 156 73 260 74 144 164 212 305 231 32 4 75 20 108 40 55
34 164 65 224 65 60 0 169 -31 224 -65 36 -22 78 -37 119 -43 36 -6 87 -20
115 -32 190 -82 332 -468 219 -597 -54 -62 -145 -91 -216 -68 -17 5 -25 -3
-47 -47 -15 -29 -40 -70 -57 -91 l-30 -38 22 -74 c27 -95 56 -234 71 -352 l13
-93 31 0 c47 0 164 27 222 51 l52 20 17 86 c23 118 66 263 103 352 l31 74 -29
34 c-32 36 -38 53 -17 53 29 0 116 31 140 50 29 23 26 50 -4 50 -10 0 -35 -11
-55 -25 -47 -32 -118 -35 -134 -6 -21 40 -13 49 32 41 57 -11 178 9 178 29 -1
23 -20 33 -51 26 -65 -14 -134 -11 -163 8 -26 18 -27 21 -21 75 4 31 18 86 32
121 24 59 25 70 18 175 -6 101 -5 114 13 136 29 36 67 30 148 -24 l71 -47 66
12 c50 9 82 9 133 1 l68 -11 71 44 c133 83 169 57 159 -117 -6 -87 -4 -109 10
-137 25 -47 46 -120 46 -158 0 -27 -7 -37 -42 -60 -42 -28 -66 -31 -188 -21
-46 4 -55 -27 -14 -43 44 -16 154 -14 198 5 22 9 40 15 41 14 1 -2 -2 -18 -7
-36 -16 -58 -117 -73 -188 -26 -42 28 -73 29 -78 1 -5 -24 96 -69 166 -75 28
-3 52 -8 52 -11 0 -4 -16 -26 -36 -49 l-35 -42 26 -67 c15 -37 30 -93 33 -125
l5 -58 56 31 c223 126 360 327 391 571 21 173 -26 350 -135 509 -18 26 -36 65
-39 86 -4 21 -30 84 -57 141 -43 88 -62 115 -133 185 -96 96 -163 138 -283
179 -100 35 -257 48 -353 30 -45 -9 -59 -8 -75 4 -152 111 -251 154 -398 174
-86 11 -84 11 -177 -1z m0 -412 c0 -18 -5 -38 -12 -45 -9 -9 -9 -12 0 -12 9 0
12 -30 12 -105 l0 -105 -40 0 -40 0 0 105 0 105 28 1 27 1 -25 7 c-20 5 -26
14 -28 44 l-3 37 40 0 c40 0 41 -1 41 -33z m780 0 c0 -18 -5 -38 -12 -45 -9
-9 -9 -12 0 -12 9 0 12 -30 12 -105 l0 -105 -40 0 -40 0 0 105 c0 75 3 105 12
105 9 0 9 3 0 12 -7 7 -12 27 -12 45 0 32 1 33 40 33 39 0 40 -1 40 -33z m428
-77 c2 -79 6 -107 17 -113 16 -8 20 -45 7 -63 -4 -6 -41 -11 -83 -12 -69 -1
-78 1 -100 24 -18 19 -23 36 -23 80 -1 50 2 58 32 85 18 16 41 29 52 29 16 0
20 7 20 33 0 42 7 49 45 45 l30 -3 3 -105z m-1943 75 c53 -52 19 -164 -55
-180 -25 -5 -29 -12 -32 -43 -3 -36 -4 -37 -45 -40 l-43 -3 0 145 0 146 75 0
c67 0 79 -3 100 -25z m1211 -40 l21 -59 19 59 19 60 57 3 c55 3 56 2 62 -25 3
-15 6 -80 8 -143 l3 -115 -41 -3 c-39 -3 -42 -1 -48 29 -3 17 -6 48 -7 68 -1
33 -2 31 -22 -29 -21 -61 -24 -65 -52 -65 -28 0 -31 4 -51 70 l-22 70 -3 -70
-4 -70 -40 0 c-39 0 -40 1 -43 40 -2 22 -1 86 3 143 l7 103 56 -3 57 -3 21
-60z m-882 29 c9 -3 16 -14 16 -24 0 -10 9 -20 20 -23 12 -3 20 -14 20 -27 0
-13 -8 -24 -20 -27 -18 -5 -20 -14 -20 -79 l0 -74 -40 0 -40 0 0 75 c0 60 -3
75 -15 75 -10 0 -15 10 -15 30 0 20 5 30 15 30 8 0 15 8 15 18 0 31 25 41 64
26z m-145 -49 c30 -15 41 -33 41 -69 0 -35 -23 -58 -66 -67 l-39 -8 45 2 c37
2 45 -1 48 -17 6 -27 -24 -46 -73 -46 -52 0 -82 21 -96 69 -16 53 2 106 45
132 37 23 58 24 95 4z m336 5 c37 -14 32 -54 -8 -58 l-28 -3 33 -23 c69 -46
37 -126 -52 -126 -60 0 -85 18 -76 54 7 28 9 29 61 12 19 -7 19 -7 1 6 -64 43
-75 92 -30 127 29 23 59 26 99 11z m292 -1 c8 -8 21 -7 48 2 74 27 109 -22
103 -144 l-3 -62 -37 -3 -38 -3 0 70 c0 56 -3 71 -15 71 -12 0 -15 -15 -15
-71 l0 -70 -37 3 -38 3 -3 68 c-2 37 -7 67 -12 67 -6 0 -10 13 -10 28 0 43 32
66 57 41z m780 0 c8 -8 21 -7 48 2 31 12 40 11 63 -2 26 -14 27 -18 30 -112
l3 -97 -36 0 -35 0 0 70 c0 56 -3 70 -15 70 -12 0 -15 -15 -15 -71 l0 -70 -37
3 -38 3 -3 68 c-2 37 -7 67 -12 67 -6 0 -10 13 -10 28 0 43 32 66 57 41z"/>
<path d="M2450 2311 c0 -17 5 -33 10 -36 6 -4 10 8 10 29 0 20 -4 36 -10 36
-5 0 -10 -13 -10 -29z"/>
<path d="M520 2383 c0 -25 1 -26 16 -11 9 9 13 21 10 27 -13 20 -26 11 -26
-16z"/>
<path d="M736 2341 c-4 -7 -5 -15 -2 -18 9 -9 19 4 14 18 -4 11 -6 11 -12 0z"/>
<path d="M830 1727 c-47 -24 -43 -91 6 -103 48 -12 85 27 69 72 -12 33 -44 46
-75 31z"/>
<path d="M1125 1710 c-35 -39 7 -99 61 -86 14 4 30 17 36 31 25 56 -54 102
-97 55z"/>
<path d="M1987 1612 c-22 -25 -21 -55 2 -76 48 -44 122 15 87 70 -20 29 -65
32 -89 6z"/>
<path d="M2273 1604 c-15 -24 -15 -29 -2 -53 11 -20 22 -26 49 -26 27 0 38 6
49 26 13 24 13 29 -2 53 -12 18 -26 26 -47 26 -21 0 -35 -8 -47 -26z"/>
<path d="M2117 1524 c-3 -4 3 -24 14 -46 25 -49 19 -68 -21 -68 -23 0 -30 -4
-30 -20 0 -28 45 -48 71 -32 14 9 25 10 40 1 26 -13 65 -5 73 17 9 23 -1 34
-30 34 -32 0 -39 21 -20 59 28 52 22 61 -37 61 -30 0 -56 -3 -60 -6z"/>
<path d="M926 1512 c-3 -5 9 -34 25 -66 36 -67 35 -100 -1 -104 -59 -6 -70
-12 -70 -36 0 -29 43 -66 75 -66 12 0 34 9 47 20 25 19 26 19 43 0 25 -28 70
-25 100 5 41 40 27 75 -31 75 -54 0 -59 20 -25 89 47 91 47 91 -63 91 -52 0
-97 -4 -100 -8z"/>
<path d="M2036 766 c-100 -37 -160 -126 -160 -235 0 -79 23 -130 82 -183 148
-134 390 -38 410 162 9 94 -44 193 -127 239 -54 29 -149 38 -205 17z"/>
<path d="M1687 266 c-51 -19 -63 -31 -83 -82 -16 -41 -16 -47 1 -89 37 -99
154 -120 224 -39 26 29 31 43 31 84 0 41 -5 55 -31 84 -27 32 -41 39 -89 51
-8 2 -32 -2 -53 -9z"/>
</g>
</svg>
